<svg xmlns="http://www.w3.org/2000/svg" width="1000" height="700" viewBox="0 0 1000 700" data-palette="5956e6-af6ae7-acc6f6-ab1706e61153" role="img" aria-labelledby="tp-sc-dark-title tp-sc-dark-desc"><title id="tp-sc-dark-title">tailpin hero scene</title><desc id="tp-sc-dark-desc">Static still: transcript particles converge into the pinned answer node at the top.</desc>
<defs>
<linearGradient id="tp-sc-dark-brand" x1="0" y1="0" x2="1" y2="1"><stop stop-color="#6f6ce9"/><stop offset="0.55" stop-color="#af6ae7"/><stop offset="1" stop-color="#acc6f6"/></linearGradient>
<radialGradient id="tp-sc-dark-halo" cx="0.62" cy="0.36" r="0.85"><stop stop-color="#6f6ce9" stop-opacity="0.2"/><stop offset="1" stop-color="#050712" stop-opacity="0"/></radialGradient>
<marker id="tp-sc-dark-arrow" viewBox="0 0 10 10" refX="8" refY="5" markerWidth="5" markerHeight="5" orient="auto"><path d="m1 1 7 4-7 4" fill="none" stroke="#6f6ce9" stroke-width="1.5"/></marker>
</defs>
<style>text{font-family:Arial,'Helvetica Neue','Noto Sans',sans-serif}.tp-sc-dark-mono{font-family:Menlo,Consolas,'Liberation Mono',monospace}</style>
<rect width="1000" height="700" rx="14" fill="#050712"/>
<rect width="1000" height="700" rx="14" fill="url(#tp-sc-dark-halo)"/>
<pattern id="tp-sc-dark-grid" width="44" height="44" patternUnits="userSpaceOnUse"><path d="M44 0H0V44" fill="none" stroke="#171841" stroke-opacity="0.32" stroke-width="0.6"/></pattern><rect width="1000" height="700" rx="14" fill="url(#tp-sc-dark-grid)"/><path d="M 940 640 C 780 640, 660 560, 560 470 C 460 380, 420 300, 420 220" fill="none" stroke="#6f6ce9" stroke-opacity="0.35" stroke-width="1.6" stroke-dasharray="2 9"/><circle cx="880" cy="660" r="2.4" fill="#969cc4" fill-opacity="0.35"/><circle cx="916" cy="648" r="3.3" fill="#969cc4" fill-opacity="0.49"/><circle cx="944" cy="672" r="4.2" fill="#969cc4" fill-opacity="0.63"/><circle cx="852" cy="624" r="2.4" fill="#969cc4" fill-opacity="0.77"/><circle cx="900" cy="600" r="3.3" fill="#969cc4" fill-opacity="0.35"/><circle cx="940" cy="620" r="4.2" fill="#969cc4" fill-opacity="0.49"/><circle cx="868" cy="584" r="2.4" fill="#969cc4" fill-opacity="0.63"/><circle cx="820" cy="640" r="3.3" fill="#969cc4" fill-opacity="0.77"/><circle cx="836" cy="600" r="4.2" fill="#969cc4" fill-opacity="0.35"/><circle cx="960" cy="648" r="2.4" fill="#969cc4" fill-opacity="0.49"/><circle cx="896" cy="566" r="3.3" fill="#969cc4" fill-opacity="0.63"/><circle cx="848" cy="566" r="4.2" fill="#969cc4" fill-opacity="0.77"/><circle cx="928" cy="588" r="2.4" fill="#969cc4" fill-opacity="0.35"/><circle cx="972" cy="624" r="3.3" fill="#969cc4" fill-opacity="0.49"/><circle cx="560" cy="470" r="3" fill="#6f6ce9" fill-opacity="0.8"/><circle cx="520" cy="430" r="2.6" fill="#af6ae7" fill-opacity="0.8"/><circle cx="484" cy="380" r="2.2" fill="#6f6ce9" fill-opacity="0.8"/><circle cx="452" cy="320" r="2.6" fill="#af6ae7" fill-opacity="0.8"/><circle cx="432" cy="262" r="3" fill="#6f6ce9" fill-opacity="0.8"/><circle cx="420" cy="150" r="58" fill="#0c101f" stroke="url(#tp-sc-dark-brand)" stroke-width="2.4"/>
<circle cx="420" cy="150" r="74" fill="none" stroke="#6f6ce9" stroke-opacity="0.35" stroke-dasharray="3 6"/>
<text x="420" y="144" fill="#eef4fd" font-size="15" font-weight="700" text-anchor="middle">pinned answer</text>
<text x="420" y="164" fill="#969cc4" font-size="10.5" text-anchor="middle" class="tp-sc-dark-mono">rev 1 · high · claims[]</text><g transform="translate(420 62)" stroke="#6f6ce9" stroke-width="2.2" fill="none" stroke-linecap="round"><path d="M-9 0 H9 M-4 -8 V6 M4 -8 V6 M-4 6 C-4 12 4 12 4 6"/><circle cx="0" cy="-8" r="3.4" fill="#6f6ce9" stroke="none"/></g><text x="905" y="692" fill="#969cc4" font-size="11.5" text-anchor="middle" class="tp-sc-dark-mono">transcript (growing)</text>
<text x="560" y="505" fill="#969cc4" font-size="11.5" class="tp-sc-dark-mono">latest claims</text>
</svg>
